<svg xmlns="http://www.w3.org/2000/svg" xmlns:xlink="http://www.w3.org/1999/xlink" width="400" zoomAndPan="magnify" viewBox="0 0 300 149.999998" height="200" preserveAspectRatio="xMidYMid meet" version="1.0"><defs><g/><clipPath id="6b85dd216d"><path d="M 0.0390625 8 L 23 8 L 23 34 L 0.0390625 34 Z M 0.0390625 8 " clip-rule="nonzero"/></clipPath><clipPath id="0ba8ca776c"><rect x="0" width="149" y="0" height="44"/></clipPath><clipPath id="85b3ddeb7f"><path d="M 1 0.160156 L 29 0.160156 L 29 39 L 1 39 Z M 1 0.160156 " clip-rule="nonzero"/></clipPath><clipPath id="7d265ce4c7"><rect x="0" width="91" y="0" height="49"/></clipPath><clipPath id="0424b32644"><path d="M 40.273438 38 L 116 38 L 116 114.5 L 40.273438 114.5 Z M 40.273438 38 " clip-rule="nonzero"/></clipPath></defs><g transform="matrix(1, 0, 0, 1, 107, 27)"><g clip-path="url(#0ba8ca776c)"><g clip-path="url(#6b85dd216d)"><g fill="#003049" fill-opacity="1"><g transform="translate(1.204907, 33.592541)"><g><path d="M 21.171875 -1.078125 C 20.941406 -0.796875 20.582031 -0.640625 20.09375 -0.609375 C 19.625 -0.609375 19.171875 -0.703125 18.734375 -0.890625 C 18.304688 -1.078125 17.882812 -1.265625 17.46875 -1.453125 C 17.050781 -1.640625 16.597656 -1.734375 16.109375 -1.734375 C 15.785156 -1.734375 15.460938 -1.710938 15.140625 -1.671875 C 14.828125 -1.628906 14.539062 -1.578125 14.28125 -1.515625 L 14.078125 -1.46875 C 13.234375 -1.320312 12.414062 -1.132812 11.625 -0.90625 C 10.832031 -0.675781 10.085938 -0.445312 9.390625 -0.21875 C 9.078125 -0.132812 8.753906 -0.0625 8.421875 0 C 8.085938 0.0625 7.75 0.09375 7.40625 0.09375 C 5.300781 0.09375 3.523438 -0.742188 2.078125 -2.421875 C 0.429688 -4.296875 -0.21875 -6.609375 0.125 -9.359375 C 0.269531 -10.453125 0.648438 -11.429688 1.265625 -12.296875 C 1.890625 -13.160156 2.679688 -13.820312 3.640625 -14.28125 C 4.128906 -14.519531 4.644531 -14.6875 5.1875 -14.78125 C 5.738281 -14.882812 6.304688 -14.976562 6.890625 -15.0625 C 7.023438 -15.0625 7.148438 -15.066406 7.265625 -15.078125 C 7.390625 -15.097656 7.507812 -15.125 7.625 -15.15625 L 13.296875 -15.9375 C 14.046875 -16.050781 14.515625 -16.273438 14.703125 -16.609375 C 14.890625 -16.941406 15 -17.207031 15.03125 -17.40625 C 15.082031 -17.894531 14.925781 -18.34375 14.5625 -18.75 C 14.207031 -19.15625 13.785156 -19.425781 13.296875 -19.5625 C 12.398438 -19.914062 11.472656 -20.09375 10.515625 -20.09375 L 10.390625 -20.09375 C 9.492188 -20.0625 8.640625 -19.929688 7.828125 -19.703125 C 7.023438 -19.472656 6.25 -19.195312 5.5 -18.875 C 5.269531 -18.757812 4.992188 -18.703125 4.671875 -18.703125 C 4.035156 -18.703125 3.40625 -18.910156 2.78125 -19.328125 C 2.164062 -19.742188 1.726562 -20.242188 1.46875 -20.828125 C 1.351562 -21.054688 1.300781 -21.25 1.3125 -21.40625 C 1.332031 -21.5625 1.359375 -21.6875 1.390625 -21.78125 C 1.554688 -22.15625 1.890625 -22.492188 2.390625 -22.796875 C 2.898438 -23.097656 3.4375 -23.359375 4 -23.578125 C 4.5625 -23.796875 5.03125 -23.960938 5.40625 -24.078125 C 7.488281 -24.734375 9.582031 -25.0625 11.6875 -25.0625 C 11.894531 -25.0625 12.097656 -25.0625 12.296875 -25.0625 C 12.492188 -25.0625 12.695312 -25.050781 12.90625 -25.03125 C 13.914062 -24.96875 15.03125 -24.769531 16.25 -24.4375 C 17.476562 -24.101562 18.523438 -23.476562 19.390625 -22.5625 C 20.398438 -21.457031 21.007812 -20.359375 21.21875 -19.265625 C 21.445312 -18.023438 21.523438 -16.734375 21.453125 -15.390625 C 21.378906 -14.046875 21.359375 -12.738281 21.390625 -11.46875 C 21.390625 -10.175781 21.390625 -8.867188 21.390625 -7.546875 C 21.390625 -6.234375 21.40625 -4.945312 21.4375 -3.6875 C 21.4375 -3.25 21.457031 -2.785156 21.5 -2.296875 C 21.539062 -1.804688 21.429688 -1.398438 21.171875 -1.078125 Z M 14.890625 -8.53125 C 15.117188 -8.988281 15.191406 -9.375 15.109375 -9.6875 C 15.023438 -10.007812 14.9375 -10.226562 14.84375 -10.34375 C 14.726562 -10.519531 14.546875 -10.6875 14.296875 -10.84375 C 14.054688 -11 13.722656 -11.09375 13.296875 -11.125 L 12.953125 -11.171875 C 12.691406 -11.203125 12.421875 -11.21875 12.140625 -11.21875 C 11.867188 -11.21875 11.570312 -11.21875 11.25 -11.21875 C 10.757812 -11.21875 10.164062 -11.164062 9.46875 -11.0625 C 8.78125 -10.957031 8.117188 -10.691406 7.484375 -10.265625 C 7.054688 -9.910156 6.785156 -9.546875 6.671875 -9.171875 C 6.554688 -8.859375 6.539062 -8.457031 6.625 -7.96875 C 6.820312 -7.070312 7.207031 -6.378906 7.78125 -5.890625 C 8.363281 -5.398438 9.0625 -5.15625 9.875 -5.15625 C 10.882812 -5.15625 11.878906 -5.484375 12.859375 -6.140625 C 13.835938 -6.804688 14.515625 -7.601562 14.890625 -8.53125 Z M 14.890625 -8.53125 "/></g></g></g></g><g fill="#003049" fill-opacity="1"><g transform="translate(26.665513, 33.592541)"><g><path d="M 27.671875 -19.609375 C 26.367188 -19.441406 25.382812 -19.039062 24.71875 -18.40625 C 24.0625 -17.769531 23.609375 -16.984375 23.359375 -16.046875 C 23.109375 -15.109375 22.984375 -14.117188 22.984375 -13.078125 C 22.984375 -12.035156 23 -11.007812 23.03125 -10 C 23.03125 -9.800781 23.050781 -9.347656 23.09375 -8.640625 C 23.132812 -7.929688 23.171875 -7.117188 23.203125 -6.203125 C 23.234375 -5.296875 23.226562 -4.398438 23.1875 -3.515625 C 23.144531 -2.640625 23.039062 -1.90625 22.875 -1.3125 C 22.71875 -0.726562 22.484375 -0.40625 22.171875 -0.34375 C 21.648438 -0.289062 21.0625 -0.210938 20.40625 -0.109375 C 19.757812 -0.00390625 19.132812 0.0234375 18.53125 -0.015625 C 17.925781 -0.0664062 17.421875 -0.25 17.015625 -0.5625 C 16.609375 -0.882812 16.40625 -1.421875 16.40625 -2.171875 C 16.375 -4.304688 16.359375 -6.445312 16.359375 -8.59375 C 16.359375 -10.738281 16.273438 -12.867188 16.109375 -14.984375 C 16.015625 -16.160156 15.6875 -17.203125 15.125 -18.109375 C 14.5625 -19.023438 13.601562 -19.539062 12.25 -19.65625 C 12.164062 -19.6875 12.050781 -19.703125 11.90625 -19.703125 C 10.695312 -19.703125 9.722656 -19.410156 8.984375 -18.828125 C 8.242188 -18.253906 7.691406 -17.503906 7.328125 -16.578125 C 6.972656 -15.660156 6.738281 -14.6875 6.625 -13.65625 C 6.507812 -12.632812 6.46875 -11.660156 6.5 -10.734375 C 6.519531 -9.460938 6.535156 -8.1875 6.546875 -6.90625 C 6.566406 -5.625 6.578125 -4.347656 6.578125 -3.078125 C 6.609375 -2.066406 6.507812 -1.363281 6.28125 -0.96875 C 6.050781 -0.582031 5.660156 -0.351562 5.109375 -0.28125 C 4.554688 -0.207031 3.804688 -0.128906 2.859375 -0.046875 C 1.765625 0.046875 1.03125 -0.191406 0.65625 -0.765625 C 0.28125 -1.347656 0.09375 -2.144531 0.09375 -3.15625 C 0.09375 -5.207031 0.09375 -7.269531 0.09375 -9.34375 C 0.09375 -11.425781 0.09375 -13.507812 0.09375 -15.59375 C 0.09375 -16.625 0.09375 -17.648438 0.09375 -18.671875 C 0.09375 -19.703125 0.09375 -20.738281 0.09375 -21.78125 C 0.09375 -22.1875 0.0664062 -22.675781 0.015625 -23.25 C -0.0234375 -23.820312 0.0976562 -24.253906 0.390625 -24.546875 C 0.503906 -24.691406 0.78125 -24.765625 1.21875 -24.765625 C 1.300781 -24.765625 1.398438 -24.765625 1.515625 -24.765625 C 1.628906 -24.765625 1.742188 -24.75 1.859375 -24.71875 C 2.265625 -24.664062 2.65625 -24.601562 3.03125 -24.53125 C 3.40625 -24.457031 3.78125 -24.390625 4.15625 -24.328125 C 4.757812 -24.210938 5.367188 -24.101562 5.984375 -24 C 6.609375 -23.90625 7.238281 -23.816406 7.875 -23.734375 C 7.9375 -23.734375 7.988281 -23.734375 8.03125 -23.734375 C 8.070312 -23.734375 8.109375 -23.734375 8.140625 -23.734375 C 8.429688 -23.734375 8.691406 -23.773438 8.921875 -23.859375 C 9.148438 -23.941406 9.363281 -24.015625 9.5625 -24.078125 C 9.625 -24.128906 9.691406 -24.160156 9.765625 -24.171875 C 9.835938 -24.191406 9.890625 -24.21875 9.921875 -24.25 C 10.722656 -24.507812 11.457031 -24.707031 12.125 -24.84375 C 12.789062 -24.988281 13.410156 -25.0625 13.984375 -25.0625 C 15.742188 -25.0625 17.242188 -24.382812 18.484375 -23.03125 C 19.296875 -22.226562 20.132812 -21.828125 21 -21.828125 C 21.519531 -21.828125 21.988281 -21.941406 22.40625 -22.171875 C 22.820312 -22.398438 23.203125 -22.644531 23.546875 -22.90625 C 23.640625 -22.957031 23.722656 -23.007812 23.796875 -23.0625 C 23.867188 -23.125 23.929688 -23.171875 23.984375 -23.203125 C 25.859375 -24.472656 27.851562 -25.109375 29.96875 -25.109375 C 31.40625 -25.109375 32.769531 -24.804688 34.0625 -24.203125 C 35.363281 -23.597656 36.492188 -22.703125 37.453125 -21.515625 C 38.085938 -20.734375 38.539062 -19.84375 38.8125 -18.84375 C 39.09375 -17.851562 39.265625 -16.800781 39.328125 -15.6875 C 39.398438 -14.582031 39.429688 -13.476562 39.421875 -12.375 C 39.410156 -11.28125 39.445312 -10.257812 39.53125 -9.3125 C 39.644531 -8.039062 39.757812 -6.722656 39.875 -5.359375 C 39.988281 -4.003906 39.800781 -2.707031 39.3125 -1.46875 C 39.113281 -0.976562 38.8125 -0.660156 38.40625 -0.515625 C 38 -0.367188 37.550781 -0.316406 37.0625 -0.359375 C 36.570312 -0.410156 36.066406 -0.421875 35.546875 -0.390625 C 34.828125 -0.390625 34.300781 -0.425781 33.96875 -0.5 C 33.632812 -0.570312 33.414062 -0.773438 33.3125 -1.109375 C 33.21875 -1.441406 33.140625 -1.984375 33.078125 -2.734375 C 32.960938 -4.867188 32.914062 -7.015625 32.9375 -9.171875 C 32.96875 -11.335938 32.867188 -13.460938 32.640625 -15.546875 C 32.492188 -16.835938 32.050781 -17.851562 31.3125 -18.59375 C 30.582031 -19.332031 29.640625 -19.703125 28.484375 -19.703125 C 28.367188 -19.703125 28.238281 -19.691406 28.09375 -19.671875 C 27.957031 -19.660156 27.816406 -19.640625 27.671875 -19.609375 Z M 27.671875 -19.609375 "/></g></g></g><g fill="#003049" fill-opacity="1"><g transform="translate(70.528803, 33.592541)"><g><path d="M 21.46875 -2.765625 C 19.769531 -1.328125 17.75 -0.484375 15.40625 -0.234375 C 13.070312 0.00390625 10.75 -0.4375 8.4375 -1.5625 C 8.320312 -1.644531 8.164062 -1.6875 7.96875 -1.6875 C 7.757812 -1.6875 7.554688 -1.628906 7.359375 -1.515625 C 7.015625 -1.316406 6.84375 -1 6.84375 -0.5625 C 6.84375 -0.125 6.84375 0.304688 6.84375 0.734375 C 6.84375 1.171875 6.84375 1.601562 6.84375 2.03125 C 6.84375 2.320312 6.867188 2.789062 6.921875 3.4375 C 6.984375 4.09375 7.035156 4.796875 7.078125 5.546875 C 7.117188 6.296875 7.109375 6.960938 7.046875 7.546875 C 6.992188 8.140625 6.835938 8.523438 6.578125 8.703125 C 6.460938 8.765625 6.332031 8.804688 6.1875 8.828125 C 6.039062 8.859375 5.898438 8.890625 5.765625 8.921875 C 5.003906 9.003906 4.226562 9.097656 3.4375 9.203125 C 2.644531 9.304688 1.945312 9.234375 1.34375 8.984375 C 0.738281 8.734375 0.363281 8.132812 0.21875 7.1875 C 0.0078125 5.476562 -0.0351562 3.78125 0.078125 2.09375 C 0.203125 0.40625 0.265625 -1.269531 0.265625 -2.9375 C 0.265625 -6.207031 0.269531 -9.519531 0.28125 -12.875 C 0.289062 -16.238281 0.269531 -19.582031 0.21875 -22.90625 C 0.21875 -23.507812 0.253906 -23.941406 0.328125 -24.203125 C 0.398438 -24.460938 0.476562 -24.632812 0.5625 -24.71875 C 0.820312 -24.976562 1.25 -25.054688 1.84375 -24.953125 C 2.4375 -24.859375 3.039062 -24.71875 3.65625 -24.53125 C 4.28125 -24.34375 4.734375 -24.21875 5.015625 -24.15625 C 6.203125 -23.957031 7.316406 -23.941406 8.359375 -24.109375 C 9.398438 -24.285156 10.445312 -24.503906 11.5 -24.765625 C 12.550781 -25.023438 13.65625 -25.15625 14.8125 -25.15625 C 16.457031 -25.15625 17.941406 -24.816406 19.265625 -24.140625 C 20.597656 -23.460938 21.722656 -22.535156 22.640625 -21.359375 C 23.566406 -20.191406 24.296875 -18.882812 24.828125 -17.4375 C 25.359375 -16 25.65625 -14.507812 25.71875 -12.96875 C 25.78125 -11.425781 25.59375 -9.929688 25.15625 -8.484375 C 24.78125 -7.273438 24.28125 -6.191406 23.65625 -5.234375 C 23.039062 -4.285156 22.3125 -3.460938 21.46875 -2.765625 Z M 12.8125 -5.234375 C 12.875 -5.234375 12.914062 -5.234375 12.9375 -5.234375 C 12.96875 -5.234375 13 -5.234375 13.03125 -5.234375 C 14.21875 -5.296875 15.269531 -5.65625 16.1875 -6.3125 C 17.113281 -6.976562 17.847656 -7.859375 18.390625 -8.953125 C 18.941406 -10.054688 19.207031 -11.269531 19.1875 -12.59375 C 19.1875 -13.976562 18.898438 -15.21875 18.328125 -16.3125 C 17.765625 -17.414062 17.015625 -18.289062 16.078125 -18.9375 C 15.140625 -19.59375 14.082031 -19.921875 12.90625 -19.921875 L 12.734375 -19.921875 C 11.578125 -19.890625 10.535156 -19.535156 9.609375 -18.859375 C 8.679688 -18.179688 7.957031 -17.269531 7.4375 -16.125 C 6.925781 -14.988281 6.6875 -13.710938 6.71875 -12.296875 C 6.738281 -10.960938 7.015625 -9.757812 7.546875 -8.6875 C 8.085938 -7.625 8.816406 -6.78125 9.734375 -6.15625 C 10.660156 -5.539062 11.6875 -5.234375 12.8125 -5.234375 Z M 12.8125 -5.234375 "/></g></g></g><g fill="#003049" fill-opacity="1"><g transform="translate(100.189552, 33.592541)"><g><path d="M 24.296875 -11 C 23.941406 -10.707031 23.425781 -10.507812 22.75 -10.40625 C 22.070312 -10.3125 21.347656 -10.265625 20.578125 -10.265625 C 19.816406 -10.265625 19.101562 -10.273438 18.4375 -10.296875 C 17.78125 -10.328125 17.273438 -10.34375 16.921875 -10.34375 C 15.421875 -10.3125 13.9375 -10.289062 12.46875 -10.28125 C 11 -10.269531 9.515625 -10.265625 8.015625 -10.265625 C 7.546875 -10.265625 7.242188 -10.117188 7.109375 -9.828125 C 6.984375 -9.535156 6.972656 -9.207031 7.078125 -8.84375 C 7.179688 -8.488281 7.316406 -8.179688 7.484375 -7.921875 C 8.097656 -7.140625 8.859375 -6.507812 9.765625 -6.03125 C 10.671875 -5.5625 11.613281 -5.269531 12.59375 -5.15625 C 13.695312 -5.039062 14.613281 -5.191406 15.34375 -5.609375 C 16.082031 -6.023438 16.914062 -6.460938 17.84375 -6.921875 C 18.269531 -7.160156 18.5625 -7.304688 18.71875 -7.359375 C 18.882812 -7.421875 19.15625 -7.289062 19.53125 -6.96875 C 19.9375 -6.65625 20.316406 -6.222656 20.671875 -5.671875 C 21.035156 -5.117188 21.390625 -4.644531 21.734375 -4.25 C 22.109375 -3.75 22.09375 -3.28125 21.6875 -2.84375 C 21.28125 -2.414062 20.660156 -2.019531 19.828125 -1.65625 C 18.992188 -1.300781 18.082031 -0.992188 17.09375 -0.734375 C 16.113281 -0.472656 15.226562 -0.269531 14.4375 -0.125 C 13.644531 0.0195312 13.101562 0.09375 12.8125 0.09375 C 10.882812 0.09375 9.101562 -0.285156 7.46875 -1.046875 C 5.832031 -1.816406 4.4375 -2.859375 3.28125 -4.171875 C 2.132812 -5.484375 1.269531 -6.960938 0.6875 -8.609375 C 0.113281 -10.253906 -0.109375 -11.976562 0.015625 -13.78125 C 0.148438 -15.59375 0.707031 -17.347656 1.6875 -19.046875 C 2.4375 -20.378906 3.4375 -21.503906 4.6875 -22.421875 C 5.945312 -23.347656 7.332031 -24.035156 8.84375 -24.484375 C 10.363281 -24.929688 11.914062 -25.132812 13.5 -25.09375 C 15.09375 -25.050781 16.601562 -24.734375 18.03125 -24.140625 C 19.457031 -23.546875 20.707031 -22.65625 21.78125 -21.46875 C 22.269531 -20.925781 22.738281 -20.242188 23.1875 -19.421875 C 23.632812 -18.597656 24.015625 -17.707031 24.328125 -16.75 C 24.648438 -15.800781 24.847656 -14.867188 24.921875 -13.953125 C 24.992188 -13.046875 24.898438 -12.21875 24.640625 -11.46875 C 24.578125 -11.300781 24.460938 -11.144531 24.296875 -11 Z M 17.75 -15.5 C 17.832031 -15.695312 17.863281 -15.914062 17.84375 -16.15625 C 17.8125 -16.5 17.648438 -16.828125 17.359375 -17.140625 C 16.578125 -18.242188 15.566406 -19.050781 14.328125 -19.5625 C 13.085938 -20.082031 11.816406 -20.054688 10.515625 -19.484375 C 9.941406 -19.222656 9.398438 -18.890625 8.890625 -18.484375 C 8.390625 -18.078125 7.921875 -17.644531 7.484375 -17.1875 C 7.367188 -17.070312 7.253906 -16.941406 7.140625 -16.796875 C 7.023438 -16.648438 6.941406 -16.492188 6.890625 -16.328125 C 6.773438 -15.972656 6.832031 -15.648438 7.0625 -15.359375 C 7.289062 -15.078125 7.578125 -14.9375 7.921875 -14.9375 L 16.75 -14.9375 C 17.238281 -14.9375 17.570312 -15.125 17.75 -15.5 Z M 17.75 -15.5 "/></g></g></g><g fill="#003049" fill-opacity="1"><g transform="translate(129.07089, 33.592541)"><g><path d="M 13.46875 -19.1875 C 13.320312 -19.09375 13.15625 -19.023438 12.96875 -18.984375 C 12.78125 -18.941406 12.597656 -18.890625 12.421875 -18.828125 C 12.109375 -18.804688 11.773438 -18.785156 11.421875 -18.765625 C 11.078125 -18.753906 10.75 -18.707031 10.4375 -18.625 C 9.738281 -18.414062 9.144531 -18.046875 8.65625 -17.515625 C 8.164062 -16.984375 7.789062 -16.382812 7.53125 -15.71875 C 7.039062 -14.382812 6.726562 -12.9375 6.59375 -11.375 C 6.46875 -9.820312 6.425781 -8.25 6.46875 -6.65625 C 6.507812 -5.070312 6.519531 -3.578125 6.5 -2.171875 L 6.5 -1.515625 C 6.5 -0.960938 6.285156 -0.578125 5.859375 -0.359375 C 5.441406 -0.148438 4.9375 -0.0351562 4.34375 -0.015625 C 3.757812 -0.00390625 3.1875 -0.0234375 2.625 -0.078125 C 2.0625 -0.140625 1.617188 -0.1875 1.296875 -0.21875 C 1.003906 -0.21875 0.789062 -0.273438 0.65625 -0.390625 C 0.394531 -0.566406 0.226562 -0.898438 0.15625 -1.390625 C 0.0820312 -1.878906 0.046875 -2.425781 0.046875 -3.03125 C 0.046875 -3.632812 0.0664062 -4.207031 0.109375 -4.75 C 0.148438 -5.300781 0.171875 -5.707031 0.171875 -5.96875 C 0.234375 -6.976562 0.289062 -7.988281 0.34375 -9 C 0.40625 -10.007812 0.4375 -11.019531 0.4375 -12.03125 C 0.4375 -14 0.4375 -15.96875 0.4375 -17.9375 C 0.4375 -19.914062 0.4375 -21.90625 0.4375 -23.90625 C 0.4375 -24.394531 0.550781 -24.703125 0.78125 -24.828125 C 1.007812 -24.960938 1.296875 -25.015625 1.640625 -24.984375 C 1.992188 -24.953125 2.34375 -24.953125 2.6875 -24.984375 C 3.289062 -25.066406 3.878906 -25.109375 4.453125 -25.109375 C 5.640625 -25.109375 6.550781 -24.734375 7.1875 -23.984375 C 7.414062 -23.722656 7.703125 -23.59375 8.046875 -23.59375 C 8.160156 -23.59375 8.265625 -23.609375 8.359375 -23.640625 C 8.734375 -23.671875 9.179688 -23.800781 9.703125 -24.03125 C 10.222656 -24.257812 10.765625 -24.484375 11.328125 -24.703125 C 11.890625 -24.921875 12.414062 -25.0625 12.90625 -25.125 C 13.394531 -25.195312 13.796875 -25.109375 14.109375 -24.859375 C 14.429688 -24.617188 14.59375 -24.125 14.59375 -23.375 C 14.59375 -23 14.582031 -22.613281 14.5625 -22.21875 C 14.550781 -21.832031 14.53125 -21.453125 14.5 -21.078125 C 14.476562 -20.878906 14.453125 -20.664062 14.421875 -20.4375 C 14.390625 -20.207031 14.300781 -20.003906 14.15625 -19.828125 C 13.976562 -19.515625 13.75 -19.300781 13.46875 -19.1875 Z M 13.46875 -19.1875 "/></g></g></g></g></g><g transform="matrix(1, 0, 0, 1, 136, 74)"><g clip-path="url(#7d265ce4c7)"><g clip-path="url(#85b3ddeb7f)"><g fill="#669bbc" fill-opacity="1"><g transform="translate(1.15415, 37.595374)"><g><path d="M 0.1875 -1.734375 C 0.3125 -4.785156 0.378906 -7.835938 0.390625 -10.890625 C 0.410156 -13.941406 0.390625 -16.992188 0.328125 -20.046875 C 0.328125 -21.765625 0.3125 -23.488281 0.28125 -25.21875 C 0.25 -26.945312 0.234375 -28.664062 0.234375 -30.375 C 0.234375 -30.84375 0.191406 -31.425781 0.109375 -32.125 C 0.0351562 -32.832031 0.015625 -33.539062 0.046875 -34.25 C 0.078125 -34.96875 0.21875 -35.566406 0.46875 -36.046875 C 0.71875 -36.535156 1.171875 -36.78125 1.828125 -36.78125 C 1.890625 -36.78125 1.9375 -36.78125 1.96875 -36.78125 C 2 -36.78125 2.03125 -36.78125 2.0625 -36.78125 C 2.519531 -36.75 2.953125 -36.734375 3.359375 -36.734375 C 3.765625 -36.734375 4.125 -36.71875 4.4375 -36.6875 C 4.71875 -36.6875 5.035156 -36.703125 5.390625 -36.734375 C 5.753906 -36.765625 6.082031 -36.734375 6.375 -36.640625 C 6.675781 -36.546875 6.84375 -36.3125 6.875 -35.9375 C 7.03125 -34.53125 7.050781 -33.132812 6.9375 -31.75 C 6.832031 -30.363281 6.78125 -28.957031 6.78125 -27.53125 C 6.78125 -27.03125 6.894531 -26.566406 7.125 -26.140625 C 7.363281 -25.722656 7.773438 -25.515625 8.359375 -25.515625 C 8.515625 -25.515625 8.671875 -25.535156 8.828125 -25.578125 C 8.984375 -25.628906 9.125 -25.671875 9.25 -25.703125 C 9.3125 -25.703125 9.347656 -25.707031 9.359375 -25.71875 C 9.378906 -25.738281 9.40625 -25.75 9.4375 -25.75 C 9.625 -25.78125 9.800781 -25.828125 9.96875 -25.890625 C 10.144531 -25.953125 10.328125 -26 10.515625 -26.03125 C 10.671875 -26.0625 10.828125 -26.097656 10.984375 -26.140625 C 11.140625 -26.191406 11.296875 -26.234375 11.453125 -26.265625 C 13.910156 -26.796875 16.273438 -26.828125 18.546875 -26.359375 C 20.828125 -25.890625 22.789062 -24.597656 24.4375 -22.484375 C 25.8125 -20.734375 26.703125 -18.796875 27.109375 -16.671875 C 27.515625 -14.554688 27.488281 -12.460938 27.03125 -10.390625 C 26.582031 -8.328125 25.75 -6.460938 24.53125 -4.796875 C 23.320312 -3.128906 21.78125 -1.84375 19.90625 -0.9375 C 18.039062 -0.03125 15.90625 0.28125 13.5 0 C 12.632812 -0.09375 11.796875 -0.265625 10.984375 -0.515625 C 10.171875 -0.765625 9.328125 -0.890625 8.453125 -0.890625 C 8.078125 -0.890625 7.710938 -0.863281 7.359375 -0.8125 C 7.003906 -0.769531 6.65625 -0.671875 6.3125 -0.515625 C 5.75 -0.296875 4.984375 -0.1875 4.015625 -0.1875 C 3.859375 -0.1875 3.6875 -0.1875 3.5 -0.1875 C 3.3125 -0.1875 3.140625 -0.1875 2.984375 -0.1875 C 2.585938 -0.21875 2.160156 -0.207031 1.703125 -0.15625 C 1.253906 -0.113281 0.890625 -0.171875 0.609375 -0.328125 C 0.328125 -0.484375 0.1875 -0.859375 0.1875 -1.453125 C 0.1875 -1.515625 0.1875 -1.566406 0.1875 -1.609375 C 0.1875 -1.660156 0.1875 -1.703125 0.1875 -1.734375 Z M 9.203125 -18.875 C 7.867188 -17.351562 7.203125 -15.5 7.203125 -13.3125 C 7.203125 -12.007812 7.523438 -10.75 8.171875 -9.53125 C 8.828125 -8.320312 9.675781 -7.328125 10.71875 -6.546875 C 11.769531 -5.765625 12.835938 -5.375 13.921875 -5.375 L 14.015625 -5.375 C 15.953125 -5.4375 17.617188 -6.257812 19.015625 -7.84375 C 20.390625 -9.46875 21.078125 -11.335938 21.078125 -13.453125 C 21.046875 -14.828125 20.707031 -16.101562 20.0625 -17.28125 C 19.425781 -18.46875 18.59375 -19.425781 17.5625 -20.15625 C 16.539062 -20.894531 15.421875 -21.265625 14.203125 -21.265625 C 14.203125 -21.265625 14.191406 -21.265625 14.171875 -21.265625 C 14.160156 -21.265625 14.15625 -21.265625 14.15625 -21.265625 C 13.257812 -21.265625 12.375 -21.0625 11.5 -20.65625 C 10.625 -20.25 9.859375 -19.65625 9.203125 -18.875 Z M 9.203125 -18.875 "/></g></g></g></g><g fill="#669bbc" fill-opacity="1"><g transform="translate(32.791498, 37.595374)"><g><path d="M 1.78125 -0.09375 C 1.28125 -0.09375 0.957031 -0.160156 0.8125 -0.296875 C 0.675781 -0.441406 0.53125 -0.953125 0.375 -1.828125 C 0.21875 -2.878906 0.269531 -3.796875 0.53125 -4.578125 C 0.800781 -5.359375 1.210938 -6.078125 1.765625 -6.734375 C 2.328125 -7.390625 2.9375 -8.054688 3.59375 -8.734375 C 3.84375 -8.984375 4.097656 -9.238281 4.359375 -9.5 C 4.628906 -9.769531 4.875 -10.046875 5.09375 -10.328125 C 5.9375 -11.296875 6.804688 -12.238281 7.703125 -13.15625 C 8.609375 -14.070312 9.5 -14.96875 10.375 -15.84375 L 10.515625 -15.984375 C 10.671875 -16.140625 10.8125 -16.28125 10.9375 -16.40625 C 11.0625 -16.53125 11.1875 -16.65625 11.3125 -16.78125 C 11.9375 -17.40625 12.554688 -18.039062 13.171875 -18.6875 C 13.796875 -19.34375 14.3125 -20.09375 14.71875 -20.9375 C 15.09375 -21.6875 15.34375 -22.535156 15.46875 -23.484375 C 15.59375 -24.429688 15.519531 -25.332031 15.25 -26.1875 C 14.988281 -27.050781 14.4375 -27.703125 13.59375 -28.140625 C 13.039062 -28.410156 12.453125 -28.546875 11.828125 -28.546875 C 11.046875 -28.546875 10.296875 -28.375 9.578125 -28.03125 C 8.859375 -27.695312 8.3125 -27.390625 7.9375 -27.109375 C 7.664062 -26.921875 7.410156 -26.71875 7.171875 -26.5 C 6.941406 -26.28125 6.703125 -26.046875 6.453125 -25.796875 C 6.171875 -25.515625 5.863281 -25.234375 5.53125 -24.953125 C 5.207031 -24.671875 4.9375 -24.515625 4.71875 -24.484375 C 4.6875 -24.484375 4.671875 -24.484375 4.671875 -24.484375 C 4.671875 -24.484375 4.65625 -24.484375 4.625 -24.484375 C 4.03125 -24.484375 3.414062 -24.722656 2.78125 -25.203125 C 2.144531 -25.691406 1.59375 -26.09375 1.125 -26.40625 C 1 -26.53125 0.78125 -26.671875 0.46875 -26.828125 C 0.15625 -26.984375 0 -27.171875 0 -27.390625 C 0 -27.546875 0.046875 -27.6875 0.140625 -27.8125 C 1.234375 -29.550781 2.601562 -31.023438 4.25 -32.234375 C 5.90625 -33.453125 7.773438 -34.21875 9.859375 -34.53125 C 10.609375 -34.625 11.34375 -34.671875 12.0625 -34.671875 C 14.832031 -34.671875 17.164062 -33.910156 19.0625 -32.390625 C 20.53125 -31.234375 21.609375 -29.820312 22.296875 -28.15625 C 22.984375 -26.488281 23.1875 -24.847656 22.90625 -23.234375 C 22.6875 -21.796875 22.175781 -20.507812 21.375 -19.375 C 20.582031 -18.238281 19.75 -17.125 18.875 -16.03125 C 17.914062 -14.8125 16.941406 -13.601562 15.953125 -12.40625 C 14.972656 -11.207031 13.972656 -10.015625 12.953125 -8.828125 C 12.859375 -8.703125 12.75 -8.53125 12.625 -8.3125 C 12.5 -8.09375 12.46875 -7.816406 12.53125 -7.484375 C 12.59375 -7.171875 12.726562 -6.9375 12.9375 -6.78125 C 13.15625 -6.625 13.3125 -6.515625 13.40625 -6.453125 C 13.9375 -6.265625 14.484375 -6.175781 15.046875 -6.1875 C 15.609375 -6.207031 16.171875 -6.21875 16.734375 -6.21875 C 17.359375 -6.21875 17.988281 -6.222656 18.625 -6.234375 C 19.257812 -6.253906 19.890625 -6.28125 20.515625 -6.3125 C 20.734375 -6.3125 21.046875 -6.34375 21.453125 -6.40625 C 21.859375 -6.46875 22.253906 -6.503906 22.640625 -6.515625 C 23.035156 -6.535156 23.304688 -6.484375 23.453125 -6.359375 C 23.703125 -6.140625 23.800781 -5.796875 23.75 -5.328125 C 23.707031 -4.859375 23.703125 -4.484375 23.734375 -4.203125 C 23.734375 -3.609375 23.734375 -3.03125 23.734375 -2.46875 C 23.734375 -1.914062 23.71875 -1.34375 23.6875 -0.75 C 23.6875 -0.28125 23.507812 -0.0507812 23.15625 -0.0625 C 22.800781 -0.0820312 22.4375 -0.09375 22.0625 -0.09375 C 21.59375 -0.09375 21.125 -0.09375 20.65625 -0.09375 C 20.1875 -0.09375 19.71875 -0.09375 19.25 -0.09375 C 18.289062 -0.09375 17.328125 -0.09375 16.359375 -0.09375 C 15.390625 -0.09375 14.40625 -0.109375 13.40625 -0.140625 C 11.507812 -0.140625 9.601562 -0.140625 7.6875 -0.140625 C 5.769531 -0.140625 3.847656 -0.125 1.921875 -0.09375 Z M 1.78125 -0.09375 "/></g></g></g><g fill="#669bbc" fill-opacity="1"><g transform="translate(60.830509, 37.595374)"><g><path d="M 23.5 -24.109375 C 24.09375 -23.460938 24.28125 -22.765625 24.0625 -22.015625 C 23.96875 -21.671875 23.804688 -21.347656 23.578125 -21.046875 C 23.347656 -20.753906 23.109375 -20.46875 22.859375 -20.1875 C 22.703125 -20.03125 22.546875 -19.875 22.390625 -19.71875 C 22.234375 -19.5625 22.078125 -19.40625 21.921875 -19.25 C 21.671875 -18.96875 21.332031 -18.875 20.90625 -18.96875 C 20.488281 -19.0625 20.066406 -19.21875 19.640625 -19.4375 C 19.222656 -19.65625 18.859375 -19.8125 18.546875 -19.90625 C 17.867188 -20.15625 17.191406 -20.375 16.515625 -20.5625 C 15.847656 -20.75 15.15625 -20.890625 14.4375 -20.984375 C 14.28125 -21.015625 14.128906 -21.03125 13.984375 -21.03125 C 13.847656 -21.03125 13.703125 -21.03125 13.546875 -21.03125 C 12.023438 -21.03125 10.664062 -20.566406 9.46875 -19.640625 C 8.269531 -18.722656 7.453125 -17.503906 7.015625 -15.984375 C 6.546875 -14.328125 6.585938 -12.703125 7.140625 -11.109375 C 7.703125 -9.523438 8.671875 -8.253906 10.046875 -7.296875 C 11.109375 -6.578125 12.476562 -6.21875 14.15625 -6.21875 C 16.3125 -6.21875 18.039062 -6.734375 19.34375 -7.765625 C 19.96875 -8.253906 20.488281 -8.566406 20.90625 -8.703125 C 21.332031 -8.847656 21.84375 -8.5625 22.4375 -7.84375 C 22.75 -7.539062 23.050781 -7.207031 23.34375 -6.84375 C 23.632812 -6.488281 23.921875 -6.125 24.203125 -5.75 C 24.578125 -5.25 24.640625 -4.765625 24.390625 -4.296875 C 24.140625 -3.828125 23.71875 -3.390625 23.125 -2.984375 C 22.539062 -2.585938 21.925781 -2.238281 21.28125 -1.9375 C 20.644531 -1.644531 20.15625 -1.421875 19.8125 -1.265625 C 17.914062 -0.359375 15.921875 0.09375 13.828125 0.09375 C 11.773438 0.09375 9.8125 -0.347656 7.9375 -1.234375 C 6.070312 -2.128906 4.40625 -3.382812 2.9375 -5 C 1.695312 -6.46875 0.875 -7.976562 0.46875 -9.53125 C 0.0625 -11.09375 -0.0703125 -12.617188 0.0625 -14.109375 C 0.207031 -15.609375 0.46875 -16.960938 0.84375 -18.171875 C 1.65625 -20.671875 2.972656 -22.664062 4.796875 -24.15625 C 6.617188 -25.65625 8.882812 -26.578125 11.59375 -26.921875 C 12.5 -27.015625 13.335938 -27.0625 14.109375 -27.0625 C 14.546875 -27.0625 15.1875 -27.003906 16.03125 -26.890625 C 16.875 -26.785156 17.773438 -26.613281 18.734375 -26.375 C 19.703125 -26.144531 20.625 -25.84375 21.5 -25.46875 C 22.375 -25.09375 23.039062 -24.640625 23.5 -24.109375 Z M 23.5 -24.109375 "/></g></g></g></g></g><g clip-path="url(#0424b32644)"><path fill="#000000" d="M 115.117188 111.246094 L 93.585938 67.9375 C 87.242188 73.605469 81.664062 83.554688 81.976562 91.707031 L 88.492188 104.558594 C 88.726562 105.019531 89.125 105.375 89.609375 105.554688 L 112.558594 114.089844 C 114.304688 114.742188 115.949219 112.917969 115.117188 111.246094 Z M 76.476562 87.578125 C 76.417969 87.660156 76.367188 87.746094 76.324219 87.839844 L 68.148438 104.40625 C 67.914062 104.878906 67.511719 105.242188 67.019531 105.425781 L 43.648438 114.121094 C 41.910156 114.765625 40.273438 112.964844 41.078125 111.296875 L 75.773438 39.5625 C 76.515625 38.023438 78.707031 38.011719 79.464844 39.542969 L 92.847656 66.457031 C 85.511719 71.703125 79.765625 79.03125 76.476562 87.578125 " fill-opacity="1" fill-rule="nonzero"/></g></svg>